{"title":"Fucking Machines - Ultimate Squirter","uid":8178362,"size":110550766,"categoryP":"porn","categoryS":"movie_clips","magnet":"?xt=urn:btih:cabed99841fb67b017dfd33739c308b70fd72bfa&amp;dn=Fucking+Machines+-+Ultimate+Squirter&amp;tr=udp%3A%2F%2Ftracker.openbittorrent.com%3A80&amp;tr=udp%3A%2F%2Fopen.demonii.com%3A1337&amp;tr=udp%3A%2F%2Ftracker.coppersurfer.tk%3A6969&amp;tr=udp%3A%2F%2Fexodus.desync.com%3A6969","seeders":1,"leechers":0,"uploader":"Danimal1q2w3","files":1,"time":1361573543,"description":"&quot;If the oceans ever dry up, we know who to call&quot;\n\n    -- My Girlfriend\n\nHaha, seed\n\n\nVideo\nID                                       : 201\nFormat                                   : AVC\nFormat/Info                              : Advanced Video Codec\nFormat profile                           : &lt;a class=&quot;__cf_email__&quot; href=&quot;/cdn-cgi/l/email-protection&quot; data-cfemail=&quot;aeeccfddcbc2c7c0cbeee29c809f&quot;&gt;[email&amp;#160;protected]&lt;/a&gt;&lt;script cf-hash='f9e31' type=&quot;text/javascript&quot;&gt;\n/* &lt;![CDATA[ */!function(){try{var t=&quot;currentScript&quot;in document?document.currentScript:function(){for(var t=document.getElementsByTagName(&quot;script&quot;),e=t.length;e--;)if(t[e].getAttribute(&quot;cf-hash&quot;))return t[e]}();if(t&amp;&amp;t.previousSibling){var e,r,n,i,c=t.previousSibling,a=c.getAttribute(&quot;data-cfemail&quot;);if(a){for(e=&quot;&quot;,r=parseInt(a.substr(0,2),16),n=2;a.length-n;n+=2)i=parseInt(a.substr(n,2),16)^r,e+=String.fromCharCode(i);e=document.createTextNode(e),c.parentNode.replaceChild(e,c)}}}catch(u){}}();/* ]]&gt; */&lt;/script&gt;\nFormat settings, CABAC                   : No\nFormat settings, ReFrames                : 1 frame\nCodec ID                                 : avc1\nCodec ID/Info                            : Advanced Video Coding\nDuration                                 : 27mn 56s\nBit rate                                 : 400 Kbps\nWidth                                    : 432 pixels\nHeight                                   : 240 pixels\nDisplay aspect ratio                     : 16:9\nFrame rate mode                          : Constant\nFrame rate                               : 29.970 fps\nColor space                              : YUV\nChroma subsampling                       : 4:2:0\nBit depth                                : 8 bits\nScan type                                : Progressive\nBits/(Pixel*Frame)                       : 0.129\nStream size                              : 80.4 MiB (76%)\nWriting library                          : x264 core 120 r2146 bcd41db\n\nAudio\nID                                       : 101\nFormat                                   : AAC\nFormat/Info                              : Advanced Audio Codec\nFormat profile                           : LC\nCodec ID                                 : 40\nDuration                                 : 27mn 56s\nBit rate mode                            : Variable\nBit rate                                 : 96.0 Kbps\nChannel(s)                               : 2 channels\nChannel positions                        : Front: L R\nSampling rate                            : 44.1 KHz\nCompression mode                         : Lossy\nStream size                              : 19.1 MiB (18%)\nTagged date                              : UTC 2012-09-01 03:22:05\n\n\n\n\n\n","torrent":{"xt":"urn:btih:cabed99841fb67b017dfd33739c308b70fd72bfa","amp;dn":"Fucking+Machines+-+Ultimate+Squirter","amp;tr":["udp%3A%2F%2Ftracker.openbittorrent.com%3A80","udp%3A%2F%2Fopen.demonii.com%3A1337","udp%3A%2F%2Ftracker.coppersurfer.tk%3A6969","udp%3A%2F%2Fexodus.desync.com%3A6969"],"infoHash":"cabed99841fb67b017dfd33739c308b70fd72bfa","infoHashBuffer":{"type":"Buffer","data":[202,190,217,152,65,251,103,176,23,223,211,55,57,195,8,183,15,215,43,250]},"announce":[],"urlList":[]}}